# xmcd
#
# Track frame offsets:
#	150
#	14885
#	27994
#	47695
#	65941
#	81603
#	98181
#	119522
#	131048
#	153629
#	172409
#	191518
#
# Disc length: 2909 seconds
# Revision: 0
# Processed by: cddbd v1.5.2PL0 Copyright (c) Steve Scherf et al.
# Submitted via: dBpowerAMP V12.0
#
DISCID=bc0b5b0c
DTITLE=Billy Buckman - American Heroes
DYEAR=1900
DGENRE=Country
TTITLE0=Utah and Woody
TTITLE1=Pretty Boy Floyd
TTITLE2=Paul's Place
TTITLE3=Rusty Old American Dream
TTITLE4=I'm Goin' Home
TTITLE5=Childhood Memories
TTITLE6=Drinkin' Days
TTITLE7=Sugar Babe
TTITLE8=Hesitation Blues
TTITLE9=Mr. Bojangles
TTITLE10=Quick as Dreams
TTITLE11=Knockin' on Heaven's Door
EXTD=
EXTT0=
EXTT1=
EXTT2=
EXTT3=
EXTT4=
EXTT5=
EXTT6=
EXTT7=
EXTT8=
EXTT9=
EXTT10=
EXTT11=
PLAYORDER=
